<?xml version="1.0" standalone="no"?>
<!DOCTYPE svg PUBLIC "-//W3C//DTD SVG 20010904//EN"
 "http://www.w3.org/TR/2001/REC-SVG-20010904/DTD/svg10.dtd">
<svg version="1.0" xmlns="http://www.w3.org/2000/svg"
 width="719.000000pt" height="719.000000pt" viewBox="0 0 719.000000 719.000000"
 preserveAspectRatio="xMidYMid meet">

<g transform="translate(0.000000,719.000000) scale(0.100000,-0.100000)"
fill="#000000" stroke="none">
<path d="M0 4041 c0 -2850 1 -3151 16 -3165 19 -20 29 -20 48 -1 8 8 31 15 51
15 31 0 36 3 41 30 5 23 12 30 30 30 13 0 24 -4 24 -10 0 -5 7 -10 15 -10 11
0 15 12 15 50 l0 50 40 0 40 0 0 40 c0 38 2 40 30 40 28 0 30 2 30 40 l0 40
88 0 88 0 12 32 c8 21 8 36 2 42 -15 15 -12 53 6 70 10 11 34 16 69 16 l54 0
3 38 c3 36 4 37 48 42 l45 5 3 118 3 117 43 0 c42 0 42 1 38 30 -2 17 0 30 6
30 6 0 9 -15 7 -32 -2 -18 -8 -84 -14 -146 -5 -62 -13 -117 -17 -124 -4 -6 -9
-43 -11 -82 -2 -39 -7 -72 -13 -74 -14 -5 0 -32 17 -32 8 0 21 7 29 15 9 8 29
15 45 15 16 0 29 4 29 10 0 5 17 12 38 16 20 4 39 10 42 13 3 4 25 15 50 24
71 27 76 32 60 54 -14 17 -14 17 6 0 11 -9 26 -17 32 -17 7 0 12 -5 12 -12 0
-6 3 -8 7 -4 4 3 -11 25 -34 49 -22 23 -60 67 -84 97 -25 30 -52 64 -62 75
-47 55 -227 319 -227 334 0 5 -3 11 -8 13 -4 2 -23 32 -41 68 -19 36 -37 67
-40 70 -9 7 -71 145 -71 157 0 6 -4 13 -8 15 -5 2 -28 53 -52 113 -24 61 -49
113 -55 117 -5 4 -7 8 -3 8 4 0 1 17 -7 38 -22 58 -73 242 -100 360 -57 251
-77 449 -76 732 2 439 71 797 231 1210 30 78 154 332 203 415 34 59 114 182
184 285 62 90 231 288 334 390 103 103 306 276 389 333 172 117 300 196 420
257 36 18 72 37 80 41 34 18 160 73 245 105 261 102 539 169 828 200 186 20
622 15 782 -10 382 -58 686 -152 1010 -311 629 -309 1152 -829 1468 -1460 82
-164 96 -195 145 -330 150 -412 211 -788 199 -1230 -12 -401 -70 -700 -209
-1070 -50 -133 -184 -414 -236 -495 -57 -90 -67 -105 -78 -125 -14 -26 -185
-262 -214 -295 -68 -78 -150 -169 -185 -205 -106 -110 -110 -114 -85 -108 16
4 21 3 16 -5 -4 -7 -17 -12 -29 -12 -27 0 -56 -19 -117 -75 -66 -60 -283 -221
-371 -274 -43 -26 -74 -51 -72 -59 3 -8 -1 -10 -12 -6 -8 4 -23 0 -33 -8 -9
-8 -66 -39 -127 -69 -60 -30 -114 -59 -120 -65 -5 -6 -30 -16 -55 -23 -46 -14
-95 -41 -72 -41 7 0 32 9 54 20 23 11 52 20 65 20 13 0 23 5 23 10 0 6 10 10
23 10 16 0 18 3 9 9 -11 7 -10 9 3 14 9 4 13 3 10 -3 -8 -13 16 -13 50 0 16 6
24 6 20 0 -3 -5 -21 -12 -40 -16 -36 -6 -45 -18 -22 -28 10 -5 10 -7 0 -12
-20 -9 -15 -22 10 -27 21 -4 21 -4 -2 -6 -23 -1 -24 -2 -6 -15 17 -12 16 -13
-10 -20 -15 -4 -30 -5 -33 -1 -3 3 2 5 11 5 10 0 17 5 17 10 0 14 -20 12 -50
-5 -15 -9 -19 -15 -10 -15 11 0 10 -4 -5 -17 -19 -15 -19 -15 5 -8 48 14 96
18 85 7 -5 -6 -21 -13 -35 -16 -14 -3 -2 -3 25 -1 28 2 59 7 70 10 16 5 17 5
5 -4 -8 -5 -32 -13 -52 -16 -21 -4 -38 -11 -38 -16 0 -12 23 -12 35 0 6 5 26
12 45 16 l36 6 -4 -40 c-3 -26 -10 -42 -20 -45 -10 -3 1 -4 23 -2 22 2 32 1
23 -1 -10 -2 -18 -8 -18 -13 0 -5 8 -11 18 -13 9 -2 -1 -3 -23 -1 -33 3 -36 2
-15 -5 24 -9 24 -9 3 -10 -37 -2 -26 -19 17 -26 39 -7 40 -8 40 -46 0 -39 0
-39 40 -39 l40 0 0 -40 c0 -36 -2 -40 -25 -40 -22 0 -25 -4 -25 -40 0 -29 -4
-40 -15 -40 -21 0 -19 -6 14 -40 24 -25 36 -30 77 -30 45 1 48 2 30 15 -11 8
-28 15 -38 15 -10 0 -18 7 -18 16 0 14 2 14 22 0 12 -9 30 -16 40 -16 10 0 18
-7 18 -15 0 -13 108 -15 915 -15 l915 0 0 3595 0 3595 -3595 0 -3595 0 0
-3149z m505 -1572 c-10 -15 -25 -10 -19 6 4 8 10 12 15 9 5 -3 7 -10 4 -15z
m-8 -41 c-3 -8 -6 -5 -6 6 -1 11 2 17 5 13 3 -3 4 -12 1 -19z m188 -348 c3 -5
1 -10 -4 -10 -6 0 -11 5 -11 10 0 6 2 10 4 10 3 0 8 -4 11 -10z m72 -140 c6
-16 8 -30 3 -30 -4 0 -10 8 -14 18 -3 9 -9 23 -12 30 -3 6 -2 12 3 12 5 0 14
-13 20 -30z m63 -103 c0 -5 -4 -5 -10 -2 -5 3 -10 14 -10 23 0 15 2 15 10 2 5
-8 10 -19 10 -23z m54 -86 c-7 -7 -32 20 -38 42 -4 18 -2 17 18 -8 14 -17 22
-32 20 -34z m-64 12 c-11 -17 -11 -17 -6 0 3 10 6 24 7 30 0 9 2 9 5 0 3 -7 0
-20 -6 -30z m280 -295 c0 -6 -7 -5 -15 2 -8 7 -15 17 -15 22 0 6 7 5 15 -2 8
-7 15 -17 15 -22z m4310 -642 c0 -3 -4 -8 -10 -11 -5 -3 -10 -1 -10 4 0 6 5
11 10 11 6 0 10 -2 10 -4z m-80 -40 c0 -3 -4 -8 -10 -11 -5 -3 -10 -1 -10 4 0
6 5 11 10 11 6 0 10 -2 10 -4z m67 -2 c-3 -3 -12 -4 -19 -1 -8 3 -5 6 6 6 11
1 17 -2 13 -5z m-62 -34 c-3 -5 -11 -10 -16 -10 -6 0 -7 5 -4 10 3 6 11 10 16
10 6 0 7 -4 4 -10z m35 -20 c0 -5 -5 -10 -11 -10 -5 0 -7 5 -4 10 3 6 8 10 11
10 2 0 4 -4 4 -10z m-119 -16 c-25 -10 -38 -11 -45 -4 -8 8 -6 9 5 5 10 -4 20
-2 24 4 3 6 16 11 28 11 17 -1 15 -4 -12 -16z m46 -15 c-21 -11 -44 -18 -50
-16 -15 5 42 35 68 35 13 1 7 -6 -18 -19z m-177 -34 c-14 -7 -27 -11 -30 -9
-6 7 22 24 40 23 9 0 5 -6 -10 -14z m175 5 c-3 -5 -12 -10 -18 -10 -7 0 -6 4
3 10 19 12 23 12 15 0z m105 6 c0 -2 -9 -6 -20 -9 -11 -3 -18 -1 -14 4 5 9 34
13 34 5z m50 -16 c0 -5 -10 -10 -22 -10 -19 0 -20 2 -8 10 19 13 30 13 30 0z
m-283 -16 c-3 -3 -12 -4 -19 -1 -8 3 -5 6 6 6 11 1 17 -2 13 -5z m223 -8 c0
-9 -30 -14 -35 -6 -4 6 3 10 14 10 12 0 21 -2 21 -4z m-250 -26 c-8 -5 -22 -9
-30 -9 -10 0 -8 3 5 9 27 12 43 12 25 0z m-7 -37 c-7 -2 -19 -2 -25 0 -7 3 -2
5 12 5 14 0 19 -2 13 -5z m-6 -29 c-3 -3 -12 -4 -19 -1 -8 3 -5 6 6 6 11 1 17
-2 13 -5z m103 2 c0 -2 -7 -7 -16 -10 -8 -3 -12 -2 -9 4 6 10 25 14 25 6z
m-20 -70 c0 -2 -7 -7 -16 -10 -8 -3 -12 -2 -9 4 6 10 25 14 25 6z m97 -2 c-3
-3 -12 -4 -19 -1 -8 3 -5 6 6 6 11 1 17 -2 13 -5z m-87 -144 c8 -5 12 -11 10
-14 -8 -7 -60 6 -60 15 0 12 31 11 50 -1z m90 -30 c0 -5 -4 -10 -10 -10 -5 0
-10 5 -10 10 0 6 5 10 10 10 6 0 10 -4 10 -10z m60 -60 c0 -5 -4 -10 -10 -10
-5 0 -10 5 -10 10 0 6 5 10 10 10 6 0 10 -4 10 -10z m84 -15 c-7 -16 -24 -21
-24 -6 0 8 7 13 27 20 1 1 0 -6 -3 -14z m-64 -65 c0 -5 -4 -10 -10 -10 -5 0
-10 -18 -10 -40 l0 -40 -40 0 -40 0 0 40 0 40 40 0 c22 0 40 5 40 10 0 6 5 10
10 10 6 0 10 -4 10 -10z"/>
<path d="M3564 5951 c-2 -2 -4 -60 -4 -127 l0 -123 59 -3 60 -3 -73 -76 -72
-76 -80 -7 c-184 -17 -331 -57 -509 -141 -377 -176 -681 -517 -810 -911 -44
-134 -60 -215 -76 -374 -10 -109 -10 -146 5 -279 25 -217 72 -377 163 -550
113 -216 244 -373 436 -523 42 -33 77 -63 77 -67 0 -3 -13 -19 -28 -36 -102
-111 -184 -209 -192 -231 -27 -71 0 -154 63 -192 61 -38 86 -37 192 3 13 5 7
-5 -16 -26 -20 -19 -69 -72 -110 -118 -41 -47 -82 -93 -91 -102 -73 -76 -18
-235 87 -255 72 -13 103 2 185 89 100 106 383 418 463 511 82 94 110 117 135
111 48 -12 327 -6 417 8 272 45 514 149 720 310 134 104 290 279 364 406 71
123 88 157 124 247 83 207 113 389 104 638 -8 227 -48 396 -138 592 -33 70
-123 225 -151 259 -10 11 -31 37 -47 59 -194 248 -494 443 -813 531 -32 8 -58
18 -58 20 0 2 20 26 45 52 65 70 88 122 80 181 -6 47 -36 92 -68 105 -32 12
-19 26 15 16 48 -13 78 -11 78 6 0 15 -40 29 -116 41 -36 5 -42 4 -47 -15 -4
-16 -13 -21 -37 -21 -37 0 -65 -13 -102 -48 -28 -26 -28 -26 -28 -4 0 37 -27
89 -52 103 -23 13 -145 29 -154 20z m121 -47 c27 -11 44 -61 34 -103 -10 -44
-32 -61 -81 -61 l-38 0 0 85 0 85 34 0 c19 0 42 -3 51 -6z m-185 -403 c0 -5
-4 -11 -8 -13 -4 -1 -34 -32 -67 -68 -32 -36 -77 -85 -99 -110 -43 -48 -187
-208 -246 -274 -19 -22 -60 -67 -91 -100 -30 -34 -95 -106 -144 -161 -49 -55
-99 -110 -111 -122 -51 -50 -84 -111 -84 -153 0 -61 24 -103 96 -167 35 -31
64 -61 64 -66 0 -5 -26 -38 -58 -73 -85 -92 -102 -163 -58 -238 14 -23 78 -91
143 -151 116 -109 214 -200 342 -320 36 -33 117 -110 180 -172 64 -61 138
-131 164 -155 l49 -44 -29 -31 c-15 -17 -46 -50 -67 -74 -22 -24 -59 -65 -83
-91 l-44 -48 -47 43 c-26 23 -49 44 -52 47 -3 3 -36 34 -73 70 l-69 65 -46
-52 c-26 -29 -99 -111 -162 -182 -63 -71 -122 -130 -130 -130 -41 -2 -271 205
-362 326 -169 223 -267 460 -308 743 -18 121 -8 367 20 495 59 280 194 539
382 736 245 256 538 409 884 463 113 18 114 18 114 7z m593 -72 c557 -184 956
-677 1027 -1269 42 -350 -51 -725 -255 -1025 -214 -314 -534 -534 -910 -625
-167 -40 -393 -52 -513 -26 -69 15 -97 29 -39 19 40 -6 33 -12 179 149 115
128 172 191 188 208 66 70 159 179 169 197 16 30 14 109 -4 142 -8 16 -46 58
-85 93 l-71 64 60 65 c81 86 105 135 96 197 -7 50 -21 66 -271 301 -44 41 -96
90 -117 110 l-38 36 -52 -56 c-29 -30 -76 -83 -106 -117 -29 -34 -58 -62 -65
-62 -6 0 -51 39 -101 86 -49 47 -101 94 -113 104 -13 11 -22 24 -20 29 1 5 41
52 88 103 47 52 110 123 140 158 30 35 60 68 65 74 6 7 30 34 55 61 25 28 81
90 125 139 44 50 89 99 100 111 11 12 56 62 100 111 44 49 87 96 95 104 8 8
49 53 90 99 41 47 82 92 90 101 82 89 84 93 88 152 4 50 1 64 -22 98 -34 52
-82 74 -146 68 -28 -3 -50 -3 -50 0 0 3 10 16 22 29 27 28 34 27 201 -28z
m-888 -2889 c25 -11 -1 -11 -35 0 -20 6 -21 8 -5 8 11 0 29 -3 40 -8z m-135
-20 c8 -5 11 -10 5 -10 -5 0 -17 5 -25 10 -8 5 -10 10 -5 10 6 0 17 -5 25 -10z
m230 0 c20 -6 21 -8 5 -8 -11 0 -31 4 -45 8 -20 6 -21 8 -5 8 11 0 31 -4 45
-8z m-170 -20 c18 -12 2 -12 -25 0 -13 6 -15 9 -5 9 8 0 22 -4 30 -9z m227 4
c-3 -3 -12 -4 -19 -1 -8 3 -5 6 6 6 11 1 17 -2 13 -5z m-180 -20 c-3 -3 -12
-4 -19 -1 -8 3 -5 6 6 6 11 1 17 -2 13 -5z m86 -21 c-7 -2 -19 -2 -25 0 -7 3
-2 5 12 5 14 0 19 -2 13 -5z"/>
<path d="M3344 5898 c20 -126 20 -161 1 -175 -26 -19 -59 -16 -79 6 -10 11
-23 52 -30 98 -10 68 -14 78 -34 81 -26 4 -26 9 -7 -97 19 -109 42 -141 102
-141 83 0 122 53 104 142 -6 29 -13 70 -16 91 -5 29 -10 37 -27 37 -19 0 -20
-4 -14 -42z"/>
<path d="M2910 5826 c-47 -18 -85 -38 -84 -45 1 -6 2 -16 3 -21 0 -6 14 -4 32
5 17 9 36 14 42 12 7 -2 27 -46 46 -96 26 -70 38 -91 53 -91 25 0 23 15 -17
114 -19 48 -35 89 -35 90 0 2 18 11 40 20 28 11 38 20 34 31 -8 20 -16 19
-114 -19z"/>
<path d="M4266 5812 c-8 -16 -31 -68 -51 -116 -29 -71 -34 -91 -23 -97 22 -14
26 -11 44 39 10 26 26 63 35 82 l17 34 17 -79 c28 -132 31 -140 46 -143 11 -2
29 29 62 109 26 61 44 115 41 120 -12 20 -33 6 -49 -33 -29 -75 -40 -98 -46
-98 -3 0 -12 28 -19 63 -22 109 -30 135 -45 141 -10 3 -20 -5 -29 -22z"/>
<path d="M2597 5674 c-41 -22 -59 -70 -41 -106 19 -36 50 -43 112 -25 53 16
72 10 72 -24 0 -27 -28 -42 -77 -43 -57 -1 -66 -20 -18 -36 30 -10 41 -9 73 8
68 35 81 102 27 138 -23 15 -30 15 -80 1 -49 -14 -57 -14 -70 -1 -28 28 29 81
64 59 6 -3 20 -1 32 6 l22 12 -24 13 c-31 17 -57 17 -92 -2z"/>
<path d="M4604 5658 c-6 -10 9 -27 45 -47 16 -9 18 -5 -63 -132 -31 -49 -36
-63 -25 -70 8 -5 16 -9 19 -9 3 0 30 38 60 85 30 47 59 85 63 85 5 0 21 -9 37
-20 23 -16 30 -17 39 -6 13 16 12 17 -83 80 -72 49 -81 52 -92 34z"/>
<path d="M2134 5288 c-11 -13 -32 -40 -48 -60 l-28 -37 34 -29 c18 -16 61 -52
95 -80 l61 -51 51 58 c54 62 60 76 37 84 -7 3 -29 -13 -50 -39 -36 -43 -37
-44 -61 -28 -32 21 -31 27 7 75 27 33 30 42 18 50 -11 7 -24 -2 -52 -33 -37
-41 -38 -41 -58 -23 -27 24 -26 30 15 79 19 24 32 46 28 49 -12 13 -29 7 -49
-15z"/>
<path d="M5054 5180 c-11 -4 -34 -24 -52 -44 -44 -50 -44 -101 -1 -151 26 -29
38 -35 71 -35 32 0 39 3 36 18 -2 11 -14 18 -35 20 -64 6 -84 78 -35 126 63
59 151 35 138 -37 -3 -18 -1 -39 4 -47 9 -13 12 -12 25 4 29 39 11 112 -34
139 -31 18 -82 21 -117 7z"/>
<path d="M1930 5015 c-10 -12 -10 -19 2 -33 8 -9 38 -45 67 -79 60 -71 63 -69
-68 -52 -86 10 -100 6 -101 -28 0 -14 207 -126 220 -118 24 15 5 35 -62 70
l-73 37 75 -7 c41 -3 84 -7 95 -8 35 -3 26 27 -25 87 -28 32 -49 61 -46 63 2
3 31 -11 63 -29 58 -35 83 -38 83 -13 0 12 -190 125 -210 125 -4 0 -13 -7 -20
-15z"/>
<path d="M5224 4866 c-110 -48 -94 -207 22 -223 112 -15 193 104 132 193 -32
46 -90 57 -154 30z m114 -42 c14 -10 22 -25 22 -45 0 -44 -14 -63 -60 -84 -38
-17 -43 -17 -76 -2 -33 16 -35 20 -32 59 2 35 9 46 37 65 40 27 78 29 109 7z"/>
<path d="M1735 4573 c-11 -38 -20 -72 -20 -77 0 -12 226 -79 235 -69 7 7 50
135 50 148 0 3 -8 5 -19 5 -13 0 -23 -14 -36 -56 -16 -52 -19 -55 -44 -49 -40
10 -43 18 -27 66 20 56 20 59 -2 59 -13 0 -23 -14 -34 -47 -12 -41 -18 -48
-39 -45 -37 4 -41 15 -25 63 20 57 20 69 -2 69 -13 0 -22 -17 -37 -67z"/>
<path d="M5385 4521 c-77 -22 -103 -39 -115 -76 -21 -63 24 -135 84 -135 36 0
167 29 180 40 4 5 4 15 0 22 -8 13 -21 12 -92 -5 -95 -22 -125 -16 -136 28 -9
36 15 62 68 75 120 30 126 33 126 51 0 24 -31 24 -115 0z"/>
<path d="M1686 4291 c-17 -18 -41 -135 -32 -150 3 -4 38 -11 78 -14 40 -4 94
-9 119 -13 41 -6 47 -4 51 14 5 18 0 21 -43 27 -75 11 -74 24 6 67 31 17 51
34 53 47 4 27 -3 26 -57 -4 -51 -29 -51 -29 -51 -10 0 47 -90 74 -124 36z m82
-74 l3 -48 -38 3 c-37 3 -38 4 -35 38 5 44 19 62 46 58 17 -2 22 -11 24 -51z"/>
<path d="M5321 4151 c-8 -5 -11 -16 -8 -24 5 -12 22 -14 94 -10 l88 5 -26 -24
c-15 -12 -54 -43 -88 -68 -36 -27 -60 -53 -61 -64 0 -18 6 -19 92 -12 50 3
106 6 125 6 27 0 33 4 33 21 0 19 -5 20 -80 17 -44 -2 -80 0 -80 3 0 3 36 32
80 64 49 36 80 66 80 77 0 16 -11 18 -117 18 -65 0 -124 -4 -132 -9z"/>
<path d="M1674 3945 c-22 -22 -25 -32 -22 -93 l3 -67 90 3 c133 4 167 11 163
30 -3 13 -15 17 -48 18 l-45 1 -7 49 c-12 82 -81 112 -134 59z m77 -25 c14 -8
19 -21 19 -50 0 -40 0 -40 -40 -40 -40 0 -40 0 -40 38 0 55 21 73 61 52z"/>
<path d="M5373 3799 c-43 -12 -83 -62 -83 -103 0 -40 36 -95 63 -96 13 0 7 41
-8 56 -20 20 -19 54 1 83 15 21 23 23 70 19 94 -8 126 -72 64 -126 -46 -41
-39 -65 13 -41 53 24 74 120 36 165 -31 37 -105 58 -156 43z"/>
<path d="M1754 3618 c-61 -17 -71 -22 -67 -39 6 -23 1 -23 93 1 41 11 83 20
92 20 47 0 66 -78 26 -104 -13 -7 -56 -21 -96 -31 -77 -18 -85 -23 -72 -45 14
-23 167 16 204 53 25 25 28 33 23 75 -10 90 -65 109 -203 70z"/>
<path d="M5236 3464 c-4 -9 -5 -18 -4 -19 2 -1 54 -19 117 -39 74 -24 118 -33
124 -27 18 18 -1 38 -50 50 -26 7 -72 21 -101 32 -64 23 -78 24 -86 3z"/>
<path d="M1947 3312 c-28 -17 -28 -19 -25 -92 3 -74 3 -75 -22 -75 -31 0 -58
48 -40 70 9 10 9 19 0 35 l-12 22 -15 -22 c-23 -33 -11 -99 23 -128 21 -18 34
-22 58 -18 46 9 57 31 54 106 -3 64 -3 65 24 68 22 3 30 -2 38 -22 6 -17 6
-35 0 -51 -17 -44 9 -75 30 -36 27 51 4 124 -47 150 -28 14 -33 14 -66 -7z"/>
<path d="M5168 3288 c-43 -78 -58 -122 -46 -130 21 -13 24 -10 46 42 12 28 26
50 32 50 6 0 46 -18 90 -40 87 -44 105 -48 114 -25 4 11 -23 29 -104 70 -60
30 -112 55 -114 55 -3 0 -11 -10 -18 -22z"/>
<path d="M1671 1668 c-50 -128 -101 -260 -101 -263 0 -3 11 -5 23 -5 19 0 28
9 40 40 15 40 16 40 70 40 l54 0 12 -40 c10 -33 16 -40 36 -40 14 0 25 4 25 8
0 9 -72 198 -95 250 -17 38 -51 43 -64 10z m45 -83 c21 -52 18 -65 -16 -65
-16 0 -30 3 -30 6 0 13 23 94 27 94 2 0 11 -16 19 -35z"/>
<path d="M1874 1677 c-2 -7 -3 -71 -2 -143 l3 -129 93 -3 c86 -3 92 -1 92 17
0 18 -8 20 -67 23 l-68 3 -3 123 c-2 114 -4 122 -23 122 -11 0 -22 -6 -25 -13z"/>
<path d="M2189 1663 c-6 -15 -30 -79 -55 -141 -24 -63 -44 -116 -44 -118 0 -2
11 -4 25 -4 20 0 26 7 36 40 l12 40 57 0 57 0 13 -40 c10 -32 18 -40 37 -40
12 0 23 3 23 8 0 4 -24 68 -53 142 -44 111 -57 136 -75 138 -16 3 -25 -4 -33
-25z m60 -125 c1 -13 -7 -18 -29 -18 -35 0 -37 11 -14 66 l17 39 13 -35 c7
-19 13 -43 13 -52z"/>
<path d="M2394 1675 c-3 -6 -3 -69 -2 -141 3 -125 4 -129 25 -132 22 -3 22 0
25 100 l3 103 70 -102 c54 -79 75 -103 93 -103 23 0 23 0 20 143 -3 134 -4
142 -23 142 -18 0 -20 -8 -25 -94 l-5 -95 -68 97 c-51 71 -73 95 -89 94 -11
-1 -22 -6 -24 -12z"/>
<path d="M2754 1680 c-63 -25 -99 -125 -70 -193 25 -61 61 -87 120 -87 31 0
61 6 74 16 29 20 52 66 52 104 0 30 0 30 -55 30 -48 0 -55 -2 -55 -20 0 -18
12 -24 48 -23 18 1 14 -25 -8 -47 -29 -29 -83 -27 -109 5 -61 78 -14 194 72
178 15 -3 32 -13 37 -23 10 -18 60 -34 60 -19 0 64 -93 109 -166 79z"/>
<path d="M2980 1546 l0 -146 25 0 26 0 -3 143 c-3 139 -4 142 -25 145 -23 3
-23 3 -23 -142z"/>
<path d="M3096 1682 c-3 -3 -6 -68 -6 -144 l0 -138 95 0 c88 0 95 1 95 20 0
18 -7 20 -70 20 l-69 0 -3 122 c-3 105 -5 121 -20 124 -9 1 -19 -1 -22 -4z"/>
<path d="M3413 1678 c-6 -7 -33 -73 -61 -146 l-51 -133 26 3 c20 2 29 12 38
38 11 34 14 35 67 38 l55 3 17 -41 c11 -28 22 -40 36 -40 11 0 20 5 20 10 0
16 -91 253 -102 268 -6 6 -16 12 -23 12 -7 0 -17 -6 -22 -12z m51 -136 c7 -20
4 -22 -29 -22 -26 0 -36 4 -32 13 2 6 10 29 18 49 l13 38 12 -28 c6 -16 15
-38 18 -50z"/>
<path d="M3617 1684 c-4 -4 -7 -70 -7 -146 l0 -138 26 0 25 0 -3 100 c-2 55
-2 100 -1 100 1 0 27 -35 57 -77 31 -43 63 -88 72 -100 9 -13 25 -23 35 -23
18 0 19 10 19 146 0 145 0 145 -22 142 -22 -3 -23 -9 -28 -96 l-5 -93 -65 93
c-61 87 -86 109 -103 92z"/>
<path d="M4052 1670 c-81 -50 -82 -206 -2 -254 43 -25 112 -21 148 9 16 14 32
34 35 45 8 30 -35 26 -59 -5 -14 -19 -28 -25 -57 -25 -31 0 -40 5 -57 33 -45
73 -11 170 60 170 22 0 39 -7 51 -21 18 -23 59 -30 59 -11 0 22 -22 49 -50 64
-40 21 -89 19 -128 -5z"/>
<path d="M4371 1676 c-12 -14 -80 -187 -88 -224 -3 -12 -9 -25 -14 -28 -19
-11 -8 -25 18 -22 20 2 29 11 38 38 11 34 14 35 67 38 l55 3 16 -41 c11 -29
21 -40 36 -40 12 0 21 4 21 10 0 11 -86 238 -98 259 -11 19 -38 22 -51 7z m59
-153 c0 -2 -16 -3 -36 -3 -33 0 -36 2 -30 25 3 13 11 37 17 52 l11 28 19 -50
c10 -27 19 -51 19 -52z"/>
<path d="M4577 1684 c-4 -4 -7 -70 -7 -146 0 -137 0 -139 22 -136 20 3 21 8
20 91 -1 51 2 87 8 87 6 0 10 -7 10 -15 0 -9 14 -49 31 -90 43 -103 56 -100
102 18 l36 92 1 -92 c0 -93 0 -93 25 -93 l26 0 -3 143 -3 142 -24 0 c-22 0
-30 -12 -67 -105 l-42 -105 -16 35 c-8 19 -28 67 -44 105 -20 49 -34 71 -48
73 -11 2 -23 0 -27 -4z"/>
<path d="M4918 1684 c-5 -4 -8 -70 -8 -146 l0 -138 24 0 c23 0 25 4 28 53 l3
52 55 3 c39 2 61 9 78 24 30 29 30 88 -1 124 -21 24 -32 27 -98 31 -41 3 -77
2 -81 -3z m140 -56 c7 -7 12 -21 12 -33 0 -32 -20 -45 -67 -45 l-43 0 0 45 0
45 43 0 c24 0 48 -5 55 -12z"/>
<path d="M5167 1683 c-13 -13 -7 -193 7 -228 18 -42 42 -55 103 -55 92 0 115
38 111 186 -3 91 -5 99 -23 99 -18 0 -20 -8 -25 -106 -6 -119 -15 -139 -66
-139 -53 0 -64 26 -64 147 0 93 -2 103 -18 103 -10 0 -22 -3 -25 -7z"/>
<path d="M5467 1669 c-20 -18 -28 -34 -29 -62 -2 -45 15 -60 89 -82 63 -19 79
-36 63 -64 -15 -29 -84 -30 -102 -1 -15 23 -58 27 -58 5 0 -8 12 -26 27 -40
23 -20 38 -25 84 -25 66 0 99 26 99 77 0 43 -26 69 -89 90 -65 21 -86 47 -57
69 28 20 63 17 83 -6 18 -20 63 -28 63 -11 0 6 -10 22 -23 37 -34 39 -112 46
-150 13z"/>
<path d="M810 1499 c0 -5 5 -7 10 -4 6 3 10 8 10 11 0 2 -4 4 -10 4 -5 0 -10
-5 -10 -11z"/>
<path d="M1235 1310 c3 -5 8 -10 11 -10 2 0 4 5 4 10 0 6 -5 10 -11 10 -5 0
-7 -4 -4 -10z"/>
<path d="M1260 1291 c0 -5 7 -12 16 -15 14 -5 15 -4 4 9 -14 17 -20 19 -20 6z"/>
<path d="M550 1110 c-9 -6 -10 -10 -3 -10 6 0 15 5 18 10 8 12 4 12 -15 0z"/>
<path d="M3380 1110 c-9 -6 -10 -10 -3 -10 6 0 15 5 18 10 8 12 4 12 -15 0z"/>
<path d="M400 1094 c0 -14 3 -14 15 -4 8 7 15 14 15 16 0 2 -7 4 -15 4 -8 0
-15 -7 -15 -16z"/>
<path d="M3490 1040 c-19 -4 -29 -8 -22 -9 20 -2 14 -17 -22 -55 -32 -35 -53
-86 -35 -86 5 0 9 5 9 11 0 8 4 8 13 1 9 -8 13 -3 14 18 2 34 51 112 66 107
21 -7 17 -24 -13 -53 -34 -33 -43 -94 -14 -94 14 0 14 3 4 15 -10 12 -10 15 4
15 9 0 16 5 16 11 0 5 -4 8 -9 4 -5 -3 -12 -1 -16 5 -3 5 1 10 9 10 9 0 16 6
16 13 0 6 7 21 15 31 14 18 16 18 33 3 24 -22 39 -22 21 -1 -11 13 -10 17 4
25 31 18 19 32 -23 26 -23 -3 -38 -1 -34 4 3 5 4 8 2 8 -2 -1 -19 -5 -38 -9z
m85 -20 c-3 -5 -10 -10 -16 -10 -5 0 -9 5 -9 10 0 6 7 10 16 10 8 0 12 -4 9
-10z m-135 -90 c0 -5 -4 -10 -10 -10 -5 0 -10 5 -10 10 0 6 5 10 10 10 6 0 10
-4 10 -10z"/>
<path d="M3634 1005 c-16 -25 -35 -45 -41 -45 -7 0 -13 -4 -13 -10 0 -5 5 -10
10 -10 6 0 10 -11 10 -25 0 -14 5 -25 11 -25 6 0 8 7 5 16 -4 9 -1 23 5 30 6
8 8 14 4 14 -4 0 5 21 20 46 35 60 26 68 -11 9z"/>
<path d="M3393 1021 c-27 -23 -30 -36 -6 -27 23 9 10 -4 -18 -18 -12 -6 -23
-18 -25 -26 -1 -8 -5 -22 -8 -31 -8 -19 18 -43 39 -35 8 3 15 13 15 23 -1 17
-1 17 -11 0 -13 -21 -29 -13 -29 15 0 15 5 19 20 15 21 -6 28 9 8 16 -7 2 2
11 20 21 31 16 43 36 21 36 -8 0 -8 5 1 15 17 21 0 18 -27 -4z"/>
<path d="M3680 1003 c-7 -21 -17 -42 -24 -48 -14 -13 -20 -65 -7 -65 6 0 8 7
5 15 -8 21 13 19 25 -2 5 -10 13 -15 16 -11 4 4 -2 17 -14 29 -12 13 -18 25
-13 28 17 13 73 91 65 91 -5 0 -15 -6 -22 -12 -11 -10 -13 -10 -7 0 4 6 3 12
-3 12 -5 0 -15 -17 -21 -37z"/>
<path d="M3736 996 c-32 -54 -32 -56 -3 -56 18 0 19 2 7 10 -8 5 -10 10 -4 10
7 0 15 11 18 25 4 14 13 25 21 25 8 0 15 4 15 9 0 5 8 12 18 14 9 3 3 5 -15 6
-27 1 -35 -5 -57 -43z"/>
<path d="M378 1023 c7 -3 16 -2 19 1 4 3 -2 6 -13 5 -11 0 -14 -3 -6 -6z"/>
<path d="M320 1000 c0 -5 5 -10 10 -10 6 0 10 5 10 10 0 6 -4 10 -10 10 -5 0
-10 -4 -10 -10z"/>
<path d="M3794 989 c-3 -5 -1 -9 5 -9 5 0 16 -3 25 -6 9 -3 16 -2 16 4 0 13
-38 23 -46 11z"/>
<path d="M3530 936 c0 -8 -3 -23 -6 -33 -5 -12 -4 -15 3 -8 16 15 26 55 14 55
-6 0 -11 -6 -11 -14z"/>
<path d="M3691 934 c0 -11 3 -14 6 -6 3 7 2 16 -1 19 -3 4 -6 -2 -5 -13z"/>
<path d="M3767 943 c-12 -11 -8 -23 8 -23 7 0 18 -6 22 -14 4 -8 20 -17 34
-21 37 -9 48 13 19 35 -22 17 -23 18 -4 23 16 4 16 5 -3 6 -26 1 -32 -24 -8
-33 8 -3 15 -10 15 -15 0 -13 -28 -3 -52 18 -17 15 -17 16 -1 23 16 6 15 7 -3
7 -11 1 -24 -2 -27 -6z"/>
<path d="M3550 918 c0 -9 5 -20 11 -23 17 -11 20 0 4 21 -13 17 -14 17 -15 2z"/>
<path d="M3712 908 c2 -14 11 -24 23 -26 20 -3 20 -3 1 13 -20 15 -20 15 0 15
16 0 17 2 4 10 -24 15 -32 12 -28 -12z"/>
<path d="M3765 890 c3 -5 10 -10 16 -10 5 0 9 5 9 10 0 6 -7 10 -16 10 -8 0
-12 -4 -9 -10z"/>
<path d="M80 860 c0 -5 -18 -10 -40 -10 -22 0 -40 -5 -40 -11 0 -6 20 -9 50
-7 28 2 50 8 50 13 -1 6 14 13 32 16 32 6 31 6 -9 8 -24 0 -43 -3 -43 -9z"/>
<path d="M3330 859 c0 -5 5 -7 10 -4 6 3 10 8 10 11 0 2 -4 4 -10 4 -5 0 -10
-5 -10 -11z"/>
<path d="M3276 803 c-6 -14 -5 -15 5 -6 7 7 10 15 7 18 -3 3 -9 -2 -12 -12z"/>
<path d="M3330 810 c0 -5 5 -10 11 -10 5 0 7 5 4 10 -3 6 -8 10 -11 10 -2 0
-4 -4 -4 -10z"/>
<path d="M5015 590 c-3 -5 1 -10 9 -10 9 0 16 5 16 10 0 6 -4 10 -9 10 -6 0
-13 -4 -16 -10z"/>
<path d="M4930 565 c-14 -8 -19 -14 -10 -14 8 0 26 6 40 14 14 8 19 14 10 14
-8 0 -26 -6 -40 -14z"/>
<path d="M4995 560 c3 -5 16 -10 28 -10 18 0 19 2 7 10 -20 13 -43 13 -35 0z"/>
<path d="M4818 553 c7 -3 16 -2 19 1 4 3 -2 6 -13 5 -11 0 -14 -3 -6 -6z"/>
<path d="M4968 543 c7 -3 16 -2 19 1 4 3 -2 6 -13 5 -11 0 -14 -3 -6 -6z"/>
<path d="M4710 510 c-8 -5 -10 -10 -5 -10 6 0 17 5 25 10 8 5 11 10 5 10 -5 0
-17 -5 -25 -10z"/>
<path d="M4638 483 c7 -3 16 -2 19 1 4 3 -2 6 -13 5 -11 0 -14 -3 -6 -6z"/>
<path d="M5098 433 c7 -3 16 -2 19 1 4 3 -2 6 -13 5 -11 0 -14 -3 -6 -6z"/>
<path d="M5048 423 c7 -3 16 -2 19 1 4 3 -2 6 -13 5 -11 0 -14 -3 -6 -6z"/>
<path d="M5085 410 c-3 -5 -16 -10 -27 -10 -12 0 -19 -3 -16 -6 9 -8 78 7 78
17 0 12 -27 11 -35 -1z"/>
</g>
</svg>
